# xmcd
#
# Track frame offsets: 
#        150
#        16065
#        31380
#        52237
#        67890
#        89192
#        102177
#        123625
#        137190
#        155522
#
# Disc length: 2359 seconds
#
# Revision: 3
# Processed by: cddbd v1.5.1PL2 Copyright (c) Steve Scherf et al.
# Submitted via: ExactAudioCopy v0.95b2
#
DISCID=8b09350a
DTITLE=Robin Trower - Someday Blues
DYEAR=1997
DGENRE=Blues
TTITLE0=Next In Line
TTITLE1=Feel So Bad
TTITLE2=Someday Blues
TTITLE3=Cossroads
TTITLE4=I Want You to Love Me
TTITLE5=Inside Out
TTITLE6=Shining Through
TTITLE7=Looking for a True Love
TTITLE8=Extermination Blues
TTITLE9=Sweet Little Angel
EXTD=
EXTT0=
EXTT1=
EXTT2=
EXTT3=
EXTT4=
EXTT5=
EXTT6=
EXTT7=
EXTT8=
EXTT9=
PLAYORDER=
